<svg width="17" height="18" viewBox="0 0 17 18" fill="none" xmlns="http://www.w3.org/2000/svg">
<path d="M7.51071 0.602386C4.71705 1.26651 3.47674 4.38895 5.11868 6.6384C5.43171 7.07222 5.9869 7.55424 6.4653 7.80596C6.93189 8.05233 7.26264 8.39511 7.61702 9.02174C7.83555 9.39129 8.14858 10.0822 8.14858 10.1732C8.14858 10.1947 8.01864 10.0286 7.85327 9.80369C6.5598 8.01484 3.99649 7.59709 2.14193 8.87177C1.48634 9.32166 0.901624 10.1036 0.64175 10.8856C0.529531 11.2123 0.505906 11.4158 0.5 11.9835C0.5 12.7173 0.559062 13.0225 0.807124 13.5795C1.15559 14.3615 1.9175 15.1327 2.70893 15.513C4.38631 16.311 6.42986 15.9147 7.61111 14.5597C7.77058 14.3776 7.95367 14.1365 8.01864 14.0187C8.18992 13.7241 8.17811 13.8527 7.99502 14.2919C7.77058 14.8382 7.41621 15.4219 7.07955 15.7968C6.33536 16.6484 5.09505 17.2858 3.93743 17.4197C3.71299 17.4411 3.52399 17.4732 3.51218 17.4839C3.50037 17.4946 5.74474 17.5 8.50295 17.5C11.2553 17.5 13.4819 17.4839 13.4465 17.4625C13.4051 17.4411 13.2929 17.4197 13.1925 17.4197C12.8854 17.4197 11.9935 17.1626 11.5092 16.9323C10.6942 16.5467 9.93226 15.8772 9.47748 15.1381C9.26486 14.806 8.89867 14.0401 8.93411 14.0134C8.94592 14.0026 9.06405 14.1473 9.19989 14.3401C9.64876 14.956 10.3929 15.4701 11.2316 15.7486C11.6214 15.8772 11.7455 15.8933 12.4601 15.8933C13.1748 15.8933 13.2988 15.8772 13.6886 15.7486C15.0234 15.3095 15.9684 14.3776 16.3701 13.0975C16.4764 12.7547 16.5 12.5566 16.5 11.9835C16.4941 11.3515 16.4764 11.239 16.3051 10.7784C15.7676 9.32166 14.5214 8.35761 12.909 8.14874C11.521 7.972 10.0268 8.61469 9.17626 9.76084C9.03451 9.95365 8.91639 10.0983 8.91639 10.0822C8.91639 10.0126 9.17626 9.4502 9.35345 9.12885C9.63105 8.62541 10.0209 8.1648 10.4284 7.85417C11.2139 7.25432 11.7219 6.74551 11.9758 6.29562C12.3361 5.66899 12.466 5.15483 12.4719 4.40502C12.4838 3.43562 12.1944 2.64831 11.5506 1.90385C11.1608 1.45396 10.8359 1.20759 10.263 0.923735C9.41251 0.505981 8.40845 0.393509 7.51071 0.602386Z" fill="#03040C"/>
</svg>
