<svg width="16" height="19" viewBox="0 0 16 19" fill="none" xmlns="http://www.w3.org/2000/svg">
<path fill-rule="evenodd" clip-rule="evenodd" d="M7.87059 0.0668267C7.70415 0.212453 7.49923 0.464013 7.05064 1.07333C5.81904 2.74632 3.07699 5.88028 0.931836 8.06667C0.328009 8.68211 0 9.04624 0 9.10116C0 9.15424 0.626547 9.84928 1.72438 11.014C3.53499 12.935 5.37654 15.0332 6.69141 16.6733C7.08921 17.1695 7.26991 17.4133 7.78674 18.1511C7.89794 18.3099 7.92904 18.3454 7.94425 18.3311C7.95467 18.3213 8.07259 18.1633 8.20628 17.98C9.43738 16.2918 11.4132 13.9274 13.3428 11.8333C14.0301 11.0874 14.5173 10.584 15.6267 9.47333C15.8318 9.268 15.9998 9.09581 16 9.09068C16.0003 9.08556 15.7891 8.86956 15.5309 8.61068C14.4941 7.57139 14.0758 7.13779 13.3661 6.36667C11.7731 4.63585 10.1284 2.72303 9.14675 1.45964C8.4097 0.511027 7.99888 0 7.97333 0C7.95883 0 7.9126 0.03008 7.87059 0.0668267Z" fill="#FA3755"/>
</svg>
