<svg width="16" height="15" viewBox="0 0 16 15" fill="none" xmlns="http://www.w3.org/2000/svg">
<path fill-rule="evenodd" clip-rule="evenodd" d="M4.50985 0.00253177C3.36962 0.0394303 2.27856 0.496719 1.44511 1.28703C0.712839 1.98139 0.226961 2.89147 0.0572201 3.88661C0.0104504 4.16083 0.00425611 4.24052 0.000810065 4.61264C-0.00126188 4.83673 0.000522295 4.98869 0.00599712 5.05474C0.0922201 6.0942 0.524371 7.08026 1.22366 7.83309C1.26957 7.88251 2.80795 9.42229 4.6423 11.2548L7.97748 14.5867L11.3053 11.262C13.1356 9.43343 14.6746 7.89204 14.7254 7.83669C15.401 7.09988 15.8156 6.19676 15.9298 5.21288C15.96 4.95339 15.9688 4.5679 15.9498 4.33589C15.8662 3.31089 15.4889 2.39476 14.8367 1.63301C14.7176 1.49386 14.4641 1.24066 14.3264 1.12334C13.3836 0.319883 12.1892 -0.07335 10.9523 0.0124663C9.88131 0.0867738 8.88485 0.521994 8.08392 1.26527C8.02574 1.31926 7.97619 1.36344 7.97382 1.36344C7.97145 1.36344 7.92754 1.32315 7.87623 1.27389C7.24043 0.663521 6.37944 0.229501 5.49547 0.0737482C5.16416 0.0153704 4.83903 -0.00812159 4.50985 0.00253177Z" fill="#FA3755"/>
</svg>
