<svg viewBox="0 0 134 124" fill="none" xmlns="http://www.w3.org/2000/svg">
<path fill-rule="evenodd" clip-rule="evenodd" d="M25.1451 0.198354C22.3151 0.605366 19.0662 1.8943 16.3983 3.66857C14.4713 4.95007 10.525 8.84798 8.76686 11.2066C2.93857 19.0254 0.358455 26.1191 0.131933 34.9471C0.00423805 39.9215 0.407693 42.9641 1.78117 47.3868L2.41273 49.4201L1.60866 50.2782C0.459231 51.5047 0.0292101 52.7423 0.125026 54.5475C0.239438 56.6996 1.12587 58.1452 2.95009 59.1541C3.79809 59.623 4.05135 59.6748 5.4861 59.6737C7.35601 59.6721 8.14202 59.3484 9.3917 58.0648C10.4861 56.9406 10.9439 55.6363 10.8479 53.9162C10.7193 51.6157 9.42535 49.7343 7.47291 49.0089C6.56363 48.6708 6.54698 48.6515 6.43664 47.8051C6.26857 46.5169 6.59444 41.3055 6.98479 39.0376C7.86945 33.8974 9.54082 30.2859 12.1725 27.8283C14.2386 25.8988 16.4599 24.9778 19.4564 24.8084C27.1509 24.3735 33.8778 30.6104 39.2316 43.1434C40.5132 46.1431 42.6672 52.5213 43.487 55.7435C43.803 56.9847 44.0786 57.9792 44.0996 57.9536C44.1207 57.9279 44.0768 56.8328 44.0019 55.52C43.8152 52.2437 43.9548 45.7482 44.2605 43.4836C44.8984 38.7582 45.96 36.7221 47.7727 36.747C49.1228 36.7656 55.7964 40.3087 63.365 45.0248C65.2935 46.2268 66.9147 47.21 66.9675 47.21C67.0203 47.21 68.7099 46.1872 70.7224 44.9371C77.1778 40.9273 83.5576 37.4444 85.5046 36.8671C86.2421 36.6486 86.4549 36.6463 86.9493 36.8526C88.2172 37.3814 89.0625 39.3037 89.6473 42.9877C89.913 44.6611 89.9658 46.0712 89.9608 51.365L89.9548 57.7301L90.4535 55.7852C93.7885 42.7813 99.3987 32.1608 105.254 27.7679C107.786 25.8677 110.159 24.9603 112.998 24.8054C118.948 24.4808 123.394 27.6853 125.661 33.9342C126.831 37.1587 127.368 40.4015 127.541 45.2862L127.657 48.578L126.742 48.8814C125.52 49.2866 124.058 50.6289 123.512 51.8477C122.924 53.1608 122.924 55.227 123.512 56.5402C124.036 57.7096 125.513 59.0913 126.654 59.4794C127.732 59.8463 129.258 59.8412 130.36 59.467C131.597 59.0473 133.104 57.5133 133.546 56.2254C134.28 54.0893 133.752 51.7069 132.194 50.1169L131.491 49.3992L132.118 47.4906C135.571 36.9673 133.994 24.9497 127.884 15.2221C122.358 6.42376 116.77 1.86477 109.626 0.326541C107.827 -0.0608456 103.246 0.0277332 100.918 0.494683C95.8908 1.5032 92.5964 2.8701 80.403 9.00729C71.9591 13.2572 67.7208 15.2078 66.93 15.2078C66.0464 15.2078 59.8997 12.3406 52.0656 8.27423C49.1433 6.75739 45.5999 4.98808 44.1914 4.34238C36.4425 0.790659 30.3073 -0.544417 25.1451 0.198354ZM55.0104 46.62C53.9368 47.9202 52.9397 50.2177 52.4257 52.5756C52.3348 52.9923 52.2466 53.0618 51.9144 52.9785C51.3999 52.8496 50.3471 53.1391 49.8406 53.5486L49.4467 53.8668L50.5606 55.5205C51.5184 56.9424 51.7057 57.3551 51.8991 58.4674C52.1876 60.1255 52.925 62.3515 53.6959 63.8922C54.0294 64.5586 54.3269 65.0757 54.357 65.0414C54.3873 65.0073 54.3482 64.5416 54.2701 64.0068C54.0965 62.8168 54.0857 60.3102 54.2497 59.233L54.3709 58.4373L55.5207 58.4909C56.7131 58.5464 59.5272 58.1314 59.7991 57.86C60.2431 57.4168 57.8386 55.1586 55.8912 54.1899C54.9153 53.7043 54.8244 53.6085 54.7217 52.9563C54.6073 52.2287 54.9907 49.2258 55.4526 47.2333C55.5963 46.6142 55.6792 46.0731 55.6368 46.0309C55.5947 45.9886 55.3127 46.2538 55.0104 46.62ZM78.7806 46.2376C79.0552 47.1876 79.6021 50.2778 79.7091 51.4824C79.8738 53.3405 79.7815 53.5967 78.7709 54.085C76.8679 55.0048 74.6469 56.967 74.6469 57.7285C74.6469 58.0529 76.5004 58.405 78.3652 58.4347L80.0466 58.4614L80.1702 59.1566C80.3358 60.0871 80.3226 62.8009 80.1467 64.0068C80.0686 64.5416 80.0275 65.0054 80.0555 65.0374C80.0833 65.0692 80.3188 64.7329 80.579 64.2898C81.2462 63.1531 82.1889 60.4324 82.5208 58.6859C82.7665 57.3934 82.9424 56.9926 83.8987 55.5447L84.9949 53.885L84.4864 53.4802C83.9104 53.0217 83.2732 52.8551 82.6005 52.9874C82.1599 53.074 82.1291 53.0258 81.8347 51.7793C81.4444 50.1268 79.9868 47.1052 79.2466 46.4144C78.7826 45.9812 78.6971 45.9488 78.7806 46.2376ZM65.4947 59.4769C64.4101 59.8309 63.6044 60.379 62.7123 61.3695C60.7322 63.5681 60.8291 67.1327 62.927 69.2772C64.117 70.4937 65.2041 70.9732 66.9427 71.0483C69.5191 71.1597 71.4356 70.0372 72.5594 67.7583C73.0771 66.7086 73.1399 66.4207 73.1279 65.1597C73.1114 63.4526 72.5806 62.1648 71.409 60.9887C69.9529 59.5268 67.3665 58.8657 65.4947 59.4769ZM52.8743 68.0009C52.8679 68.4959 53.0201 69.5154 53.2124 70.2665C54.1056 73.7526 56.3338 76.1814 60.5668 78.283C65.9352 80.948 69.0468 80.8695 74.1769 77.9394C78.6439 75.3881 80.6924 72.5266 81.1135 68.2502C81.1955 67.4179 81.1748 67.1741 81.039 67.3661C80.9357 67.512 80.85 67.7947 80.8484 67.9945C80.8436 68.6361 79.9659 70.1448 79.1722 70.8751C78.1831 71.7854 77.2494 72.2547 75.5784 72.6813C74.3604 72.9921 73.5815 73.024 67.1726 73.024C61.4052 73.024 59.8586 72.9723 58.744 72.7427C55.5798 72.0908 53.8376 70.6362 53.1465 68.0691L52.886 67.1009L52.8743 68.0009ZM46.0439 71.9824C44.2523 72.24 41.881 72.9945 40.0106 73.9018C36.8637 75.4282 34.2538 77.674 32.3464 80.4966C31.4702 81.7933 30.3698 83.8289 30.3698 84.1533C30.3698 84.2509 31.0273 84.0851 31.831 83.7847C35.6857 82.3439 43.1216 79.9755 43.1216 80.1886C43.1216 80.2255 42.8485 80.8764 42.5149 81.6349C40.0568 87.2208 39.3592 93.388 40.626 98.333C41.2624 100.817 42.4628 103.516 42.6936 102.982C42.738 102.879 43.2362 102.084 43.8005 101.214C46.1042 97.665 49.3102 94.2093 52.0594 92.3118C52.7765 91.8169 53.39 91.412 53.4228 91.412C53.4558 91.412 53.4899 92.7448 53.4991 94.3736C53.5083 96.0025 53.6146 98.0909 53.7356 99.0148C54.7306 106.625 57.7319 113.673 62.2807 119.082C63.733 120.809 66.7019 123.768 66.9826 123.768C67.2828 123.768 71.0601 119.911 72.2374 118.402C75.5706 114.131 77.8446 109.534 79.1614 104.407C80.1113 100.709 80.3759 98.6443 80.3902 94.8163C80.3973 92.9448 80.4543 91.4133 80.5172 91.4127C80.8592 91.4104 83.6363 93.6051 85.0653 95.0074C87.0892 96.9931 88.4959 98.7053 90.1011 101.136C90.7752 102.158 91.3899 103.016 91.4671 103.045C91.6991 103.131 92.8303 100.23 93.3618 98.1866C93.8235 96.4114 93.859 96.0332 93.8545 92.9149C93.8503 89.8646 93.8042 89.3616 93.3539 87.4478C92.7983 85.0871 92.0519 82.8649 91.281 81.2763C90.9972 80.6914 90.7927 80.1854 90.8263 80.1518C90.9907 79.9877 98.2879 82.3508 102.341 83.8805C103.01 84.133 103.587 84.3397 103.623 84.3397C103.806 84.3397 102.698 82.1925 101.816 80.841C98.789 76.1994 93.8937 73.0484 88.1586 72.0499C87.3254 71.905 86.6234 71.7863 86.5982 71.7863C86.5731 71.7863 86.2668 72.3869 85.9176 73.121C84.0539 77.0389 80.2969 80.7991 74.7732 84.2748C72.2972 85.8328 67.6455 88.1234 66.9576 88.1234C66.2835 88.1234 61.8321 85.9264 59.2706 84.3296C53.9006 80.9821 50.1126 77.2407 48.1563 73.352C47.7231 72.4909 47.3097 71.796 47.2376 71.8079C47.1656 71.8197 46.6284 71.8982 46.0439 71.9824Z" fill="currentColor"/>
</svg>
