<svg viewBox="0 0 158 148" fill="none" xmlns="http://www.w3.org/2000/svg">
<g filter="url(#filter0_d_105_30)">
<path fill-rule="evenodd" clip-rule="evenodd" d="M37.1451 12.1984C34.3151 12.6054 31.0662 13.8943 28.3983 15.6686C26.4713 16.9501 22.525 20.848 20.7669 23.2066C14.9386 31.0254 12.3585 38.1191 12.1319 46.9471C12.0042 51.9215 12.4077 54.9641 13.7812 59.3868L14.4127 61.4201L13.6087 62.2782C12.4592 63.5047 12.0292 64.7423 12.125 66.5475C12.2394 68.6996 13.1259 70.1452 14.9501 71.1541C15.7981 71.623 16.0513 71.6748 17.4861 71.6737C19.356 71.6721 20.142 71.3484 21.3917 70.0648C22.4861 68.9406 22.9439 67.6363 22.8479 65.9162C22.7193 63.6157 21.4254 61.7343 19.4729 61.0089C18.5636 60.6708 18.547 60.6515 18.4366 59.8051C18.2686 58.5169 18.5944 53.3055 18.9848 51.0376C19.8694 45.8974 21.5408 42.2859 24.1725 39.8283C26.2386 37.8988 28.4599 36.9778 31.4564 36.8084C39.1509 36.3735 45.8778 42.6104 51.2316 55.1434C52.5132 58.1431 54.6672 64.5213 55.487 67.7435C55.803 68.9847 56.0786 69.9792 56.0996 69.9536C56.1207 69.9279 56.0768 68.8328 56.0019 67.52C55.8152 64.2437 55.9548 57.7482 56.2605 55.4836C56.8984 50.7582 57.96 48.7221 59.7727 48.747C61.1228 48.7656 67.7964 52.3087 75.365 57.0248C77.2935 58.2268 78.9147 59.21 78.9675 59.21C79.0203 59.21 80.7099 58.1872 82.7224 56.9371C89.1778 52.9273 95.5576 49.4444 97.5046 48.8671C98.2421 48.6486 98.4549 48.6463 98.9493 48.8526C100.217 49.3814 101.063 51.3037 101.647 54.9877C101.913 56.6611 101.966 58.0712 101.961 63.365L101.955 69.7301L102.454 67.7852C105.788 54.7813 111.399 44.1608 117.254 39.7679C119.786 37.8677 122.159 36.9603 124.998 36.8054C130.948 36.4808 135.394 39.6853 137.661 45.9342C138.831 49.1587 139.368 52.4015 139.541 57.2862L139.657 60.578L138.742 60.8814C137.52 61.2866 136.058 62.6289 135.512 63.8477C134.924 65.1608 134.924 67.227 135.512 68.5402C136.036 69.7096 137.513 71.0913 138.654 71.4794C139.732 71.8463 141.258 71.8412 142.36 71.467C143.597 71.0473 145.104 69.5133 145.546 68.2254C146.28 66.0893 145.752 63.7069 144.194 62.1169L143.491 61.3992L144.118 59.4906C147.571 48.9673 145.994 36.9497 139.884 27.2221C134.358 18.4238 128.77 13.8648 121.626 12.3265C119.827 11.9392 115.246 12.0277 112.918 12.4947C107.891 13.5032 104.596 14.8701 92.403 21.0073C83.9591 25.2572 79.7208 27.2078 78.93 27.2078C78.0464 27.2078 71.8997 24.3406 64.0656 20.2742C61.1433 18.7574 57.5999 16.9881 56.1914 16.3424C48.4425 12.7907 42.3073 11.4556 37.1451 12.1984ZM67.0104 58.62C65.9368 59.9202 64.9397 62.2177 64.4257 64.5756C64.3348 64.9923 64.2466 65.0618 63.9144 64.9785C63.3999 64.8496 62.3471 65.1391 61.8406 65.5486L61.4467 65.8668L62.5606 67.5205C63.5184 68.9424 63.7057 69.3551 63.8991 70.4674C64.1876 72.1255 64.925 74.3515 65.6959 75.8922C66.0294 76.5586 66.3269 77.0757 66.357 77.0414C66.3873 77.0073 66.3482 76.5416 66.2701 76.0068C66.0965 74.8168 66.0857 72.3102 66.2497 71.233L66.3709 70.4373L67.5207 70.4909C68.7131 70.5464 71.5272 70.1314 71.7991 69.86C72.2431 69.4168 69.8386 67.1586 67.8912 66.1899C66.9153 65.7043 66.8244 65.6085 66.7217 64.9563C66.6073 64.2287 66.9907 61.2258 67.4526 59.2333C67.5963 58.6142 67.6792 58.0731 67.6368 58.0309C67.5947 57.9886 67.3127 58.2538 67.0104 58.62ZM90.7806 58.2376C91.0552 59.1876 91.6021 62.2778 91.7091 63.4824C91.8738 65.3405 91.7815 65.5967 90.7709 66.085C88.8679 67.0048 86.6469 68.967 86.6469 69.7285C86.6469 70.0529 88.5004 70.405 90.3652 70.4347L92.0466 70.4614L92.1702 71.1566C92.3358 72.0871 92.3226 74.8009 92.1467 76.0068C92.0686 76.5416 92.0275 77.0054 92.0555 77.0374C92.0833 77.0692 92.3188 76.7329 92.579 76.2898C93.2462 75.1531 94.1889 72.4324 94.5208 70.6859C94.7665 69.3934 94.9424 68.9926 95.8987 67.5447L96.9949 65.885L96.4864 65.4802C95.9104 65.0217 95.2732 64.8551 94.6005 64.9874C94.1599 65.074 94.1291 65.0258 93.8347 63.7793C93.4444 62.1268 91.9868 59.1052 91.2466 58.4144C90.7826 57.9812 90.6971 57.9488 90.7806 58.2376ZM77.4947 71.4769C76.4101 71.8309 75.6044 72.379 74.7123 73.3695C72.7322 75.5681 72.8291 79.1327 74.927 81.2772C76.117 82.4937 77.2041 82.9732 78.9427 83.0483C81.5191 83.1597 83.4356 82.0372 84.5594 79.7583C85.0771 78.7086 85.1399 78.4207 85.1279 77.1597C85.1114 75.4526 84.5806 74.1648 83.409 72.9887C81.9529 71.5268 79.3665 70.8657 77.4947 71.4769ZM64.8743 80.0009C64.8679 80.4959 65.0201 81.5154 65.2124 82.2665C66.1056 85.7526 68.3338 88.1814 72.5668 90.283C77.9352 92.948 81.0468 92.8695 86.1769 89.9394C90.6439 87.3881 92.6924 84.5266 93.1135 80.2502C93.1955 79.4179 93.1748 79.1741 93.039 79.3661C92.9357 79.512 92.85 79.7947 92.8484 79.9945C92.8436 80.6361 91.9659 82.1448 91.1722 82.8751C90.1831 83.7854 89.2494 84.2547 87.5784 84.6813C86.3604 84.9921 85.5815 85.024 79.1726 85.024C73.4052 85.024 71.8586 84.9723 70.744 84.7427C67.5798 84.0908 65.8376 82.6362 65.1465 80.0691L64.886 79.1009L64.8743 80.0009ZM58.0439 83.9824C56.2523 84.24 53.881 84.9945 52.0106 85.9018C48.8637 87.4282 46.2538 89.674 44.3464 92.4966C43.4702 93.7933 42.3698 95.8289 42.3698 96.1533C42.3698 96.2509 43.0273 96.0851 43.831 95.7847C47.6857 94.3439 55.1216 91.9755 55.1216 92.1886C55.1216 92.2255 54.8485 92.8764 54.5149 93.6349C52.0568 99.2208 51.3592 105.388 52.626 110.333C53.2624 112.817 54.4628 115.516 54.6936 114.982C54.738 114.879 55.2362 114.084 55.8005 113.214C58.1042 109.665 61.3102 106.209 64.0594 104.312C64.7765 103.817 65.39 103.412 65.4228 103.412C65.4558 103.412 65.4899 104.745 65.4991 106.374C65.5083 108.002 65.6146 110.091 65.7356 111.015C66.7306 118.625 69.7319 125.673 74.2807 131.082C75.733 132.809 78.7019 135.768 78.9826 135.768C79.2828 135.768 83.0601 131.911 84.2374 130.402C87.5706 126.131 89.8446 121.534 91.1614 116.407C92.1113 112.709 92.3759 110.644 92.3902 106.816C92.3973 104.945 92.4543 103.413 92.5172 103.413C92.8592 103.41 95.6363 105.605 97.0653 107.007C99.0892 108.993 100.496 110.705 102.101 113.136C102.775 114.158 103.39 115.016 103.467 115.045C103.699 115.131 104.83 112.23 105.362 110.187C105.824 108.411 105.859 108.033 105.855 104.915C105.85 101.865 105.804 101.362 105.354 99.4478C104.798 97.0871 104.052 94.8649 103.281 93.2763C102.997 92.6914 102.793 92.1854 102.826 92.1518C102.991 91.9877 110.288 94.3508 114.341 95.8805C115.01 96.133 115.587 96.3397 115.623 96.3397C115.806 96.3397 114.698 94.1925 113.816 92.841C110.789 88.1994 105.894 85.0484 100.159 84.0499C99.3254 83.905 98.6234 83.7863 98.5982 83.7863C98.5731 83.7863 98.2668 84.3869 97.9176 85.121C96.0539 89.0389 92.2969 92.7991 86.7732 96.2748C84.2972 97.8328 79.6455 100.123 78.9576 100.123C78.2835 100.123 73.8321 97.9264 71.2706 96.3296C65.9006 92.9821 62.1126 89.2407 60.1563 85.352C59.7231 84.4909 59.3097 83.796 59.2376 83.8079C59.1656 83.8197 58.6284 83.8982 58.0439 83.9824Z" fill="#FA3755"/>
</g>
<defs>
<filter id="filter0_d_105_30" x="0.109619" y="0"  filterUnits="userSpaceOnUse" color-interpolation-filters="sRGB">
<feFlood flood-opacity="0" result="BackgroundImageFix"/>
<feColorMatrix in="SourceAlpha" type="matrix" values="0 0 0 0 0 0 0 0 0 0 0 0 0 0 0 0 0 0 127 0" result="hardAlpha"/>
<feOffset/>
<feGaussianBlur stdDeviation="6"/>
<feComposite in2="hardAlpha" operator="out"/>
<feColorMatrix type="matrix" values="0 0 0 0 0.980392 0 0 0 0 0.215686 0 0 0 0 0.333333 0 0 0 1 0"/>
<feBlend mode="normal" in2="BackgroundImageFix" result="effect1_dropShadow_105_30"/>
<feBlend mode="normal" in="SourceGraphic" in2="effect1_dropShadow_105_30" result="shape"/>
</filter>
</defs>
</svg>
