<svg width="19" height="23" viewBox="0 0 19 23" fill="none" xmlns="http://www.w3.org/2000/svg">
<path fill-rule="evenodd" clip-rule="evenodd" d="M9.05255 0.180134C9.04847 0.191682 8.98835 0.294472 8.91896 0.408537C8.39142 1.27577 7.56422 2.24774 6.55438 3.18694C6.09504 3.61415 5.73793 3.92199 4.86614 4.64227C3.33756 5.90521 3.14363 6.06996 2.71095 6.47306C1.32353 7.76571 0.579223 8.86082 0.250066 10.0938C0.150448 10.467 0.0647428 10.9989 0.0212318 11.5141C-0.0071569 11.8503 -0.00706112 12.4823 0.0214234 12.7806C0.132643 13.9455 0.489747 14.8107 1.1405 15.4919C1.66493 16.0409 2.33751 16.4175 3.14199 16.6125C3.96795 16.8127 4.9239 16.8391 5.69829 16.6831C6.79547 16.4621 7.64561 15.8771 8.23322 14.9386L8.31558 14.8071L8.30877 14.8915C8.30503 14.938 8.29381 15.0987 8.28385 15.2487C8.24459 15.84 8.15194 16.8174 8.09237 17.2687C7.94313 18.3994 7.69957 19.2872 7.35585 19.9535C7.16851 20.3166 6.98635 20.5799 6.72799 20.861C6.39958 21.2183 6.08158 21.463 5.61448 21.7181C5.20247 21.9431 4.79894 22.0995 4.20761 22.2636C4.11213 22.2901 4.02592 22.3168 4.01604 22.3229C4.00609 22.329 6.25628 22.334 9.06279 22.334C11.8484 22.334 14.1194 22.3291 14.1095 22.3231C14.0997 22.3171 13.9946 22.2846 13.8761 22.2508C13.4217 22.1215 13.0914 22.0002 12.7625 21.8421C11.9117 21.433 11.325 20.9035 10.8783 20.1418C10.8434 20.0823 10.7724 19.9448 10.7205 19.8362C10.3035 18.9638 10.0673 17.8625 9.91333 16.0736C9.86896 15.5578 9.82103 14.8956 9.82531 14.8573C9.82857 14.828 9.84032 14.8416 9.91272 14.9582C10.1017 15.2624 10.3861 15.6005 10.6373 15.8193C11.1441 16.2609 11.804 16.5689 12.5291 16.7023C12.8704 16.7651 12.9231 16.7686 13.5408 16.7684C14.0347 16.7682 14.154 16.7645 14.2951 16.7448C15.3442 16.5986 16.0691 16.3175 16.6763 15.8216C17.5363 15.1191 18.0087 14.1194 18.1225 12.7612C18.1439 12.5049 18.1404 11.8577 18.1159 11.5661C18.0292 10.5338 17.8706 9.86299 17.5523 9.18242C17.2311 8.49562 16.8287 7.9279 16.1432 7.19462C15.5483 6.55821 15.0988 6.15543 13.6426 4.95409C12.0325 3.62582 11.5818 3.22557 10.8122 2.44062C10.2457 1.86284 9.59426 1.032 9.20612 0.392312C9.05569 0.144399 9.06207 0.153232 9.05255 0.180134Z" fill="#03040C"/>
</svg>
